<svg xmlns="http://www.w3.org/2000/svg" width="512" height="512"><path d="M508.348 368.418c-9.496-22.215-34.782-32.078-56.606-24.797l-90.84 30.277a45.125 45.125 0 00-2.215-11.136c-3.8-11.403-11.816-20.645-22.57-26.02l-124.39-62.195a74.817 74.817 0 00-54.145-5.035l-37.113 10.605c-3.32-21.562-21.996-38.12-44.473-38.12H15c-8.285 0-15 6.714-15 15v209.995c0 8.281 6.715 15 15 15h90.996c8.285 0 15-6.719 15-15v-8.043l77.55 38.774c34.716 17.343 76.09 19.379 113.509 3.324l172.656-73.559c22.844-9.781 33.434-36.218 23.637-59.07zM90.996 451.992H30V271.996h46c8.27 0 14.996 6.727 14.996 15zm381.934-52.09l-172.668 73.563c-28.84 12.37-60.973 11.078-88.305-2.578l-90.96-45.477V311.164l44.827-12.805a44.86 44.86 0 0132.488 3.02l124.391 62.195c7.399 3.7 10.41 12.727 6.711 20.13-3.773 7.542-12.851 10.347-20.129 6.706l-74.215-37.105c-18.933-9.47-42.226-4.301-55.379 12.285-5.148 6.488-4.062 15.926 2.43 21.07 6.488 5.149 15.926 4.063 21.074-2.43 4.383-5.527 12.145-7.25 18.457-4.093l74.215 37.105c16.32 8.16 36.34 5.735 50.219-6.781l115.148-38.383c7.489-2.5 16.375.754 19.532 8.145 3.312 7.718-.364 16.476-7.836 19.68zM330.965 107c0 8.281-6.715 15-15 15s-15-6.719-15-15c0-8.285 6.715-15 15-15s15 6.715 15 15zm59.995 59.996c0 8.285-6.714 15-14.995 15-8.285 0-15-6.715-15-15 0-8.281 6.715-15 15-15 8.281 0 14.996 6.719 14.996 15zm-4.362-70.606c-5.856-5.855-15.356-5.855-21.211 0l-60 60c-5.86 5.86-5.86 15.356 0 21.212 5.855 5.859 15.355 5.859 21.21 0l60-59.997c5.86-5.859 5.86-15.355 0-21.214zm0 0" data-original="#000000" class="active-path" data-old_color="#000000" fill="#FFF"/><path d="M186.625 178.71l149.996 119.997a14.974 14.974 0 009.371 3.29c3.301 0 6.602-1.087 9.332-3.259L506.32 178.742a15.002 15.002 0 00-9.332-26.746h-45.996V15c0-8.285-6.719-15-15-15H255.996c-8.285 0-15 6.715-15 15v136.996h-45a14.993 14.993 0 00-14.152 10.035 15.003 15.003 0 004.781 16.68zm69.371 3.286c8.281 0 15-6.715 15-15V30h149.996v136.996c0 8.285 6.715 15 15 15h18.016L346.023 267.81l-107.265-85.813zm0 0" data-original="#000000" class="active-path" data-old_color="#000000" fill="#FFF"/></svg>