<svg width="30" height="30" viewBox="0 0 30 30" fill="none" xmlns="http://www.w3.org/2000/svg">
<g clip-path="url(#clip0)">
<path d="M8.2937 0.191468C8.03471 -0.058715 7.62194 -0.0515023 7.37175 0.207483C7.12774 0.460173 7.12774 0.860723 7.37175 1.11335L21.2541 14.997L7.37047 28.8793C7.11148 29.1295 7.10433 29.5422 7.35445 29.8012C7.60464 30.0602 8.01735 30.0674 8.2764 29.8173C8.28184 29.812 8.28716 29.8067 8.29241 29.8012L22.6364 15.4573C22.8909 15.2027 22.8909 14.79 22.6364 14.5354L8.2937 0.191468Z" fill="#F44336"/>
<path d="M7.83232 29.9926C7.47223 29.9933 7.17981 29.7019 7.17914 29.3418C7.17883 29.1682 7.24778 29.0016 7.3707 28.879L21.2543 14.9967L7.3707 1.11441C7.11575 0.859459 7.11575 0.446134 7.3707 0.191183C7.62566 -0.0637683 8.03898 -0.0637683 8.29393 0.191183L22.6379 14.5351C22.8924 14.7897 22.8924 15.2024 22.6379 15.4571L8.29393 29.801C8.17168 29.9236 8.00554 29.9926 7.83232 29.9926Z" fill="white"/>
</g>
<defs>
<clipPath id="clip0">
<rect width="30" height="30" fill="white"/>
</clipPath>
</defs>
</svg>
